<mxfile host="app.diagrams.net" modified="2022-09-28T07:43:57.451Z" agent="5.0 (Windows NT 10.0; Win64; x64) AppleWebKit/537.36 (KHTML, like Gecko) Chrome/105.0.0.0 Safari/537.36" etag="a9Ds5K1v3liWKn6ZdvMO" version="20.3.7" type="github">
  <diagram id="YHXNMDAUgjNIEf82KM6D" name="ページ1">
    <mxGraphModel dx="371" dy="564" grid="1" gridSize="10" guides="1" tooltips="1" connect="1" arrows="1" fold="1" page="1" pageScale="1" pageWidth="827" pageHeight="1169" math="0" shadow="0">
      <root>
        <mxCell id="0" />
        <mxCell id="1" parent="0" />
        <mxCell id="ii_1wvdTF_ilezys5I7p-1" value="&lt;font size=&quot;1&quot; face=&quot;Times New Roman&quot;&gt;&lt;i style=&quot;font-size: 12px;&quot;&gt;x&lt;/i&gt;&lt;/font&gt;&lt;font size=&quot;1&quot; face=&quot;Times New Roman&quot; style=&quot;&quot;&gt;&lt;sub style=&quot;font-size: 9px;&quot;&gt;1&lt;/sub&gt;&lt;/font&gt;" style="ellipse;whiteSpace=wrap;html=1;aspect=fixed;" vertex="1" parent="1">
          <mxGeometry x="105" y="160" width="30" height="30" as="geometry" />
        </mxCell>
        <mxCell id="ii_1wvdTF_ilezys5I7p-7" value="" style="endArrow=none;dashed=1;html=1;dashPattern=1 3;strokeWidth=5;rounded=0;jumpSize=6;jumpStyle=none;" edge="1" parent="1">
          <mxGeometry width="50" height="50" relative="1" as="geometry">
            <mxPoint x="380" y="640" as="sourcePoint" />
            <mxPoint x="380" y="560" as="targetPoint" />
          </mxGeometry>
        </mxCell>
        <mxCell id="ii_1wvdTF_ilezys5I7p-8" value="&lt;font size=&quot;1&quot; face=&quot;Times New Roman&quot;&gt;&lt;i style=&quot;font-size: 12px;&quot;&gt;x&lt;/i&gt;&lt;/font&gt;&lt;font face=&quot;Times New Roman&quot; style=&quot;font-size: 10px;&quot;&gt;&lt;sub&gt;2&lt;/sub&gt;&lt;/font&gt;" style="ellipse;whiteSpace=wrap;html=1;aspect=fixed;" vertex="1" parent="1">
          <mxGeometry x="105" y="210" width="30" height="30" as="geometry" />
        </mxCell>
      </root>
    </mxGraphModel>
  </diagram>
</mxfile>
